<svg viewBox="0 0 120 120" fill="none" xmlns="http://www.w3.org/2000/svg">
  <circle cx="60" cy="60" r="60" fill="#1C1917" />
  <circle cx="60" cy="60" r="56" fill="url(#flame-bg)" />
  <path
    d="M60 28C60 28 44 48 44 64C44 72.8 48.8 80.4 56 84.4V76C56 68 60 56 60 56C60 56 64 68 64 76V84.4C71.2 80.4 76 72.8 76 64C76 48 60 28 60 28Z"
    fill="url(#flame-fire)"
  />
  <path
    d="M56 84.4C56 84.4 52 78 52 72C52 66 56 60 60 56C64 60 68 66 68 72C68 78 64 84.4 64 84.4"
    fill="#FDE68A"
    opacity="0.9"
  />
  <circle cx="60" cy="70" r="6" fill="#FEF3C7" opacity="0.8" />
  <defs>
    <radialGradient id="flame-bg" cx="0.5" cy="0.6" r="0.5">
      <stop offset="0%" stop-color="#7C2D12" />
      <stop offset="100%" stop-color="#1C1917" />
    </radialGradient>
    <linearGradient id="flame-fire" x1="60" y1="28" x2="60" y2="88">
      <stop offset="0%" stop-color="#F97316" />
      <stop offset="50%" stop-color="#EF4444" />
      <stop offset="100%" stop-color="#F59E0B" />
    </linearGradient>
  </defs>
</svg>
