<svg viewBox="0 0 120 120" fill="none" xmlns="http://www.w3.org/2000/svg">
  <circle cx="60" cy="60" r="60" fill="#1A0A2E" />
  <circle cx="60" cy="60" r="56" fill="url(#nova-bg)" />
  <path
    d="M60 24L66 50L92 50L70 66L78 92L60 76L42 92L50 66L28 50L54 50L60 24Z"
    fill="url(#nova-star)"
  />
  <path
    d="M60 32L64 50L84 50L68 62L74 82L60 72L46 82L52 62L36 50L56 50L60 32Z"
    fill="#FDE68A"
    opacity="0.5"
  />
  <circle cx="60" cy="56" r="8" fill="#FFFBEB" opacity="0.4" />
  <circle cx="60" cy="56" r="4" fill="#FFFFFF" opacity="0.6" />
  <defs>
    <radialGradient id="nova-bg" cx="0.5" cy="0.5" r="0.5">
      <stop offset="0%" stop-color="#3B1D6E" />
      <stop offset="100%" stop-color="#1A0A2E" />
    </radialGradient>
    <linearGradient id="nova-star" x1="60" y1="24" x2="60" y2="92">
      <stop offset="0%" stop-color="#E9D5FF" />
      <stop offset="40%" stop-color="#A855F7" />
      <stop offset="100%" stop-color="#7C3AED" />
    </linearGradient>
  </defs>
</svg>
